Patient4_TMGait_0pt6_02_right_33_GRF.mot
version=1
nRows=52
nColumns=19
inDegrees=no
endheader
time	F1x	F1y	F1z	M1x	M1y	M1z	F2x	F2y	F2z	M2x	M2y	M2z	EC1x	EC1y	EC1z	EC2x	EC2y	EC2z
39.71	4.9562	770.0329	76.0674	-262.9786	-71.6785	773.966	3.5249	-2.2014	-9.6194	1.538	7.3055	-8.802	-0.0592	0.0182	-0.0073	-0.0462	0.0165	0.9585
39.722	7.6098	766.6251	73.9076	-261.9887	-68.7117	767.6556	2.0722	-0.40929	-6.4166	1.4403	4.9333	-4.6459	-0.0592	0.0182	-0.0073	-0.0462	0.0165	0.9585
39.734	10.0802	762.9376	72.1586	-260.7261	-66.1465	760.8753	0.92646	1.0696	-3.7236	1.3521	2.9302	-1.2127	-0.0592	0.0182	-0.0073	-0.0462	0.0165	0.9585
39.746	12.2641	759.1076	70.8115	-259.2347	-63.9971	753.8444	0.11773	2.185	-1.6861	1.291	1.412	1.363	-0.0592	0.0182	-0.0073	-0.0462	0.0165	0.9585
39.758	14.1484	755.1851	69.8335	-257.5654	-62.2343	746.6613	-0.41126	2.9535	-0.30138	1.2589	0.38975	3.1411	-0.0592	0.0182	-0.0073	-0.0462	0.0165	0.9585
39.77	15.811	751.1213	69.066	-255.7563	-60.6889	739.279	-0.70687	3.4165	0.52983	1.2476	-0.20816	4.2272	-0.0592	0.0182	-0.0073	-0.0462	0.0165	0.9585
39.782	17.3568	746.7901	68.3977	-253.8159	-59.2313	731.5825	-0.87456	3.6292	0.93285	1.2399	-0.46324	4.7751	-0.0592	0.0182	-0.0073	-0.0462	0.0165	0.9585
39.794	18.8948	742.0762	67.6841	-251.7495	-57.7028	723.44	-0.95424	3.5846	1.0378	1.2	-0.47857	4.8405	-0.0592	0.0182	-0.0073	-0.0462	0.0165	0.9585
39.806	20.5136	736.9261	66.8636	-249.57	-56.0338	714.7902	-1.0197	3.2674	0.9573	1.0871	-0.33305	4.4921	-0.0592	0.0182	-0.0073	-0.0462	0.0165	0.9585
39.818	22.2997	731.4228	65.8985	-247.3234	-54.1779	705.688	-1.0727	2.5821	0.77882	0.84265	-0.1065	3.6584	-0.0592	0.0182	-0.0073	-0.0462	0.0165	0.9585
39.83	24.3	725.8222	64.8152	-245.1009	-52.1552	696.3651	-1.151	1.4599	0.56732	0.41708	0.14523	2.3125	-0.0592	0.0182	-0.0073	-0.0462	0.0165	0.9585
39.842	26.5565	720.5268	63.6655	-243.0334	-50.0034	687.2045	-1.2135	-0.21714	0.36287	-0.24337	0.36716	0.3168	-0.0592	0.0182	-0.0073	-0.0462	0.0165	0.9585
39.854	29.0976	716.0351	62.524	-241.2727	-47.7774	678.6861	-1.2606	-2.4797	0.19938	-1.1595	0.51982	-2.3499	-0.0592	0.0182	-0.0073	-0.0462	0.0165	0.9585
39.866	31.9351	712.8214	61.4835	-239.958	-45.5489	671.2653	-1.1988	-5.3025	0.099947	-2.3159	0.54805	-5.6809	-0.0592	0.0182	-0.0073	-0.0462	0.0165	0.9585
39.878	35.0786	711.222	60.6207	-239.1772	-43.3704	665.2744	-0.9735	-8.4369	0.088838	-3.6092	0.39967	-9.3652	-0.0592	0.0182	-0.0073	-0.0462	0.0165	0.9585
39.89	38.5095	711.3211	60.0299	-238.93	-41.3233	660.825	-0.44011	-11.3799	0.19411	-4.8236	-0.0028353	-12.824	-0.0592	0.0182	-0.0073	-0.0462	0.0165	0.9585
39.902	42.156	712.838	59.7646	-239.0985	-39.472	657.7081	0.49831	-13.1975	0.45821	-5.5706	-0.74315	-14.9515	-0.0592	0.0182	-0.0073	-0.0462	0.0165	0.9585
39.914	45.9003	715.1308	59.8615	-239.449	-37.8913	655.4142	2.0004	-12.4778	0.92804	-5.2567	-1.9223	-14.1225	-0.0592	0.0182	-0.0073	-0.0462	0.0165	0.9585
39.926	49.5617	717.2286	60.2669	-239.6512	-36.6008	653.1649	4.1312	-7.2192	1.6405	-3.0459	-3.6013	-8.0038	-0.0592	0.0182	-0.0073	-0.0462	0.0165	0.9585
39.938	52.9258	717.9313	60.8637	-239.3122	-35.5857	649.9845	6.91	5.0962	2.6082	2.1137	-5.7842	6.3257	-0.0592	0.0182	-0.0073	-0.0462	0.0165	0.9585
39.95	55.7663	715.9512	61.4447	-238.0237	-34.7575	644.8399	10.1496	27.3311	3.7979	11.4093	-8.336	32.2111	-0.0592	0.0182	-0.0073	-0.0462	0.0165	0.9585
39.962	57.9248	709.9897	61.7613	-235.3891	-33.9709	636.6565	13.4092	62.1756	5.0862	25.9553	-10.9057	72.7819	-0.0592	0.0182	-0.0073	-0.0462	0.0165	0.9585
39.974	59.2713	698.8368	61.5305	-231.0481	-33.0336	624.4226	15.8437	111.3617	6.2204	46.4569	-12.8324	130.068	-0.0592	0.0182	-0.0073	-0.0462	0.0165	0.9585
39.986	59.7552	681.3813	60.4573	-224.6796	-31.7194	607.1619	16.1142	174.3533	6.7681	72.6721	-13.0693	203.4595	-0.0592	0.0182	-0.0073	-0.0462	0.0165	0.9585
39.998	59.3321	656.689	58.2692	-216.0212	-29.819	584.0229	12.5417	246.9123	6.2776	102.8065	-10.4344	288.0392	-0.0592	0.0182	-0.0073	-0.0462	0.0165	0.9585
40.01	57.9845	624.0358	54.7921	-204.881	-27.1973	554.2837	4.5653	320.4164	4.0637	133.2429	-3.9962	373.7315	-0.0592	0.0182	-0.0073	-0.0462	0.0165	0.9585
40.022	55.6751	583.1552	50.0778	-191.1995	-23.9135	517.6264	-5.841	385.2282	-0.89775	159.9467	6.421	449.1235	-0.0592	0.0182	-0.0073	-0.0462	0.0165	0.9585
40.034	52.414	534.5076	44.4515	-175.119	-20.2342	474.3489	-16.4632	436.6487	-8.0445	180.9532	19.2179	508.4487	-0.0592	0.0182	-0.0073	-0.0462	0.0165	0.9585
40.046	48.2038	479.2245	38.4975	-156.9648	-16.6318	425.3804	-25.861	475.8462	-16.6261	196.7575	32.9396	552.833	-0.0592	0.0182	-0.0073	-0.0462	0.0165	0.9585
40.058	43.1513	419.0406	32.7415	-137.2491	-13.4851	372.1631	-33.3755	507.1686	-25.3277	209.2267	45.8659	587.3004	-0.0592	0.0182	-0.0073	-0.0462	0.0165	0.9585
40.07	37.2606	356.2527	27.4816	-116.6766	-11.0187	316.6929	-38.8972	535.2616	-33.1701	220.3591	56.8802	617.2979	-0.0592	0.0182	-0.0073	-0.0462	0.0165	0.9585
40.082	30.5837	293.6006	22.8001	-96.1191	-9.2794	261.3467	-42.7202	563.4187	-39.5215	231.5739	65.4165	646.7346	-0.0592	0.0182	-0.0073	-0.0462	0.0165	0.9585
40.094	23.2756	234.005	18.7102	-76.5237	-8.2357	208.7036	-45.0919	593.1694	-44.3192	243.5235	71.5484	677.4103	-0.0592	0.0182	-0.0073	-0.0462	0.0165	0.9585
40.106	15.7686	180.1089	15.2004	-58.7652	-7.7463	161.0661	-46.3485	624.7377	-48.0418	256.2719	75.9512	709.6929	-0.0592	0.0182	-0.0073	-0.0462	0.0165	0.9585
40.118	8.6537	133.7735	12.2413	-43.4761	-7.5973	120.0513	-46.7045	657.3047	-51.1592	269.4408	79.2831	742.7333	-0.0592	0.0182	-0.0073	-0.0462	0.0165	0.9585
40.13	2.5102	95.7195	9.7737	-30.9223	-7.547	86.2775	-46.5227	689.2432	-54.1947	282.3161	82.2618	774.8522	-0.0592	0.0182	-0.0073	-0.0462	0.0165	0.9585
40.142	-2.2911	65.7164	7.6853	-21.0522	-7.371	59.5483	-46.1211	718.6604	-57.1858	294.1062	85.0895	804.0369	-0.0592	0.0182	-0.0073	-0.0462	0.0165	0.9585
40.154	-5.5843	42.8993	5.9118	-13.5901	-6.9538	39.1394	-45.74	744.0728	-60.125	304.1975	87.8374	828.7431	-0.0592	0.0182	-0.0073	-0.0462	0.0165	0.9585
40.166	-7.3042	26.1056	4.381	-8.1509	-6.2134	24.0543	-45.4229	764.5824	-62.6019	312.2412	90.0962	848.0143	-0.0592	0.0182	-0.0073	-0.0462	0.0165	0.9585
40.178	-7.5664	14.1873	3.0621	-4.341	-5.1659	13.3236	-45.1624	779.6746	-64.443	318.0387	91.6534	861.3418	-0.0592	0.0182	-0.0073	-0.0462	0.0165	0.9585
40.19	-6.6424	6.1519	1.9408	-1.8168	-3.898	6.0502	-44.8999	789.0879	-65.4592	321.4921	92.2844	868.4793	-0.0592	0.0182	-0.0073	-0.0462	0.0165	0.9585
40.202	-5.1494	1.2534	1.0602	-0.3111	-2.6493	1.6054	-44.5792	792.7769	-65.8094	322.5783	92.1194	869.4404	-0.0592	0.0182	-0.0073	-0.0462	0.0165	0.9585
40.214	-3.5294	-1.2877	0.44983	0.44	-1.596	-0.71671	-44.1595	791.0685	-65.57	321.4347	91.2267	864.6281	-0.0592	0.0182	-0.0073	-0.0462	0.0165	0.9585
40.226	-2.0918	-2.1909	0.055077	0.67609	-0.78584	-1.5339	-43.5609	784.8326	-64.9319	318.4181	89.7911	855.0121	-0.0592	0.0182	-0.0073	-0.0462	0.0165	0.9585
40.238	-0.91742	-2.0985	-0.15903	0.60542	-0.21772	-1.4606	-42.7487	775.4419	-63.9511	314.0991	87.8814	842.0781	-0.0592	0.0182	-0.0073	-0.0462	0.0165	0.9585
40.25	-0.083466	-1.4581	-0.26672	0.37461	0.15174	-0.87906	-41.6536	764.4982	-62.7628	309.1439	85.635	827.5189	-0.0592	0.0182	-0.0073	-0.0462	0.0165	0.9585
40.262	0.479	-0.63449	-0.29639	0.097185	0.36243	-0.14056	-40.2803	753.6024	-61.4606	304.2144	83.1709	813.0195	-0.0592	0.0182	-0.0073	-0.0462	0.0165	0.9585
40.274	0.78474	0.1988	-0.29373	-0.17067	0.46176	0.64043	-38.6369	744.0798	-60.1715	299.8619	80.6395	799.9272	-0.0592	0.0182	-0.0073	-0.0462	0.0165	0.9585
40.286	0.94522	0.92406	-0.2646	-0.39717	0.48608	1.3186	-36.7965	736.9423	-58.9809	296.5038	78.1646	789.2776	-0.0592	0.0182	-0.0073	-0.0462	0.0165	0.9585
40.298	0.96559	1.5282	-0.23079	-0.57964	0.46053	1.9121	-34.7858	732.7976	-57.9486	294.3965	75.8255	781.6438	-0.0592	0.0182	-0.0073	-0.0462	0.0165	0.9585
40.31	0.94213	2.0042	-0.19148	-0.71847	0.41118	2.3797	-32.6763	731.9005	-57.1192	293.6455	73.6898	777.254	-0.0592	0.0182	-0.0073	-0.0462	0.0165	0.9585
40.322	0.86228	2.3884	-0.15649	-0.82498	0.3484	2.7871	-30.4839	734.11	-56.4734	294.199	71.7427	775.8977	-0.0592	0.0182	-0.0073	-0.0462	0.0165	0.9585
